<svg width="209" height="209" viewBox="0 0 209 209" fill="none" xmlns="http://www.w3.org/2000/svg">
<g opacity="0.1">
<path d="M129.252 104.94C129.252 118.615 118.166 129.702 104.49 129.702C90.8148 129.702 79.7285 118.615 79.7285 104.94C79.7285 91.2642 90.8148 80.1779 104.49 80.1779C118.166 80.1779 129.252 91.2642 129.252 104.94Z" fill="white"/>
<path fill-rule="evenodd" clip-rule="evenodd" d="M104.49 208.94C156.884 208.94 200.228 170.197 207.437 119.797H146.526C140.407 137.108 123.897 149.511 104.49 149.511C85.0838 149.511 68.5739 137.108 62.4552 119.797H1.54365C8.75277 170.197 52.0971 208.94 104.49 208.94ZM62.4552 90.0827H1.54365C8.75277 39.6829 52.0971 0.939846 104.49 0.939846C156.884 0.939846 200.228 39.6829 207.437 90.0827H146.526C140.407 72.7713 123.897 60.3684 104.49 60.3684C85.0838 60.3684 68.5739 72.7713 62.4552 90.0827ZM129.252 104.94C129.252 118.615 118.166 129.702 104.49 129.702C90.8148 129.702 79.7285 118.615 79.7285 104.94C79.7285 91.2642 90.8148 80.1779 104.49 80.1779C118.166 80.1779 129.252 91.2642 129.252 104.94Z" fill="white"/>
</g>
</svg>