<svg width="9" height="17" viewBox="0 0 9 17" fill="none" xmlns="http://www.w3.org/2000/svg">
<path d="M7.45074 0.133651L1.45074 0.133651C0.898557 0.133651 0.450745 0.581463 0.450745 1.13365L0.450745 15.1336C0.450745 15.6858 0.898557 16.1336 1.45074 16.1336H7.45074C8.00293 16.1336 8.45074 15.6858 8.45074 15.1336V1.13365C8.45074 0.581463 8.00293 0.133651 7.45074 0.133651ZM1.45074 15.1336L1.45074 1.13365L7.45074 1.13365V3.13365H5.70074C5.56262 3.13365 5.45074 3.24553 5.45074 3.38365V3.88365C5.45074 4.02178 5.56262 4.13365 5.70074 4.13365H7.45074V6.13365H5.70074C5.56262 6.13365 5.45074 6.24553 5.45074 6.38365V6.88365C5.45074 7.02178 5.56262 7.13365 5.70074 7.13365H7.45074L7.45074 9.13365H5.70074C5.56262 9.13365 5.45074 9.24553 5.45074 9.38365V9.88365C5.45074 10.0218 5.56262 10.1337 5.70074 10.1337H7.45074V12.1337H5.70074C5.56262 12.1337 5.45074 12.2455 5.45074 12.3837V12.8837C5.45074 13.0218 5.56262 13.1337 5.70074 13.1337H7.45074V15.1336H1.45074Z" fill="#212121"/>
</svg>
