<svg width="9" height="9" viewBox="0 0 9 9" fill="none" xmlns="http://www.w3.org/2000/svg">
<path d="M8.0462 7.55464L6.14941 5.65785C6.11348 5.62192 6.06661 5.60317 6.01661 5.60317H5.81037C6.30253 5.03288 6.60095 4.29073 6.60095 3.47827C6.60095 1.68305 5.14634 0.228432 3.35111 0.228432C1.55589 0.228432 0.101273 1.68305 0.101273 3.47827C0.101273 5.2735 1.55589 6.72811 3.35111 6.72811C4.16357 6.72811 4.90572 6.42969 5.47601 5.93753V6.14377C5.47601 6.19376 5.49632 6.24064 5.53069 6.27657L7.42748 8.17336C7.50091 8.24679 7.61965 8.24679 7.69309 8.17336L8.0462 7.82025C8.11963 7.74681 8.11963 7.62807 8.0462 7.55464ZM3.35111 5.97815C1.96993 5.97815 0.851236 4.85946 0.851236 3.47827C0.851236 2.09709 1.96993 0.978395 3.35111 0.978395C4.7323 0.978395 5.85099 2.09709 5.85099 3.47827C5.85099 4.85946 4.7323 5.97815 3.35111 5.97815Z" fill="#666666"/>
</svg>
