<svg width="18" height="18" viewBox="0 0 18 18" fill="none" xmlns="http://www.w3.org/2000/svg">
<path d="M9.33882 17.7431L10.1122 16.9697C10.2953 16.7867 10.2953 16.4899 10.1122 16.3068L4.05245 10.2471L17.3896 10.2471C17.6485 10.2471 17.8584 10.0372 17.8584 9.77833V8.68458C17.8584 8.42571 17.6485 8.21583 17.3896 8.21583H4.05245L10.1122 2.15606C10.2953 1.97302 10.2953 1.67622 10.1122 1.49313L9.33882 0.719773C9.15578 0.536726 8.85898 0.536726 8.67589 0.719773L0.495655 8.90001C0.312608 9.08305 0.312608 9.37985 0.495655 9.56294L8.67589 17.7432C8.85894 17.9262 9.15574 17.9262 9.33882 17.7431Z" fill="white"/>
</svg>
