<svg width="15" height="15" viewBox="0 0 15 15" fill="none" xmlns="http://www.w3.org/2000/svg">
<path d="M12.7003 13.6527L12.8051 12.564C12.8299 12.3063 12.6411 12.0773 12.3834 12.0524L3.85311 11.2311L14.1444 2.74762C14.3441 2.58296 14.3726 2.28751 14.2079 2.08776L13.5122 1.24379C13.3475 1.04404 13.0521 1.0156 12.8523 1.18026L2.56107 9.66373L3.38245 1.13338C3.40726 0.875703 3.21848 0.646687 2.96078 0.621845L1.87209 0.517045C1.61441 0.492234 1.3854 0.68102 1.36055 0.93872L0.25175 12.4541C0.226939 12.7117 0.415725 12.9408 0.673425 12.9656L12.1888 14.0744C12.4464 14.0992 12.6755 13.9104 12.7003 13.6527Z" fill="white"/>
</svg>
