<svg width="17" height="17" viewBox="0 0 17 17" fill="none" xmlns="http://www.w3.org/2000/svg">
<path d="M14.06 2.10539H12.0347C11.1209 0.898512 9.68715 0.105387 8.05997 0.105387C6.43278 0.105387 4.99903 0.898512 4.08528 2.10539H2.05997C0.957154 2.10539 0.059967 3.00257 0.059967 4.10539L0.059967 14.1054C0.059967 15.2082 0.957154 16.1054 2.05997 16.1054H14.06C15.1628 16.1054 16.06 15.2082 16.06 14.1054V4.10539C16.06 3.00257 15.1628 2.10539 14.06 2.10539ZM8.05997 1.10539C10.269 1.10539 12.06 2.89632 12.06 5.10539C12.06 7.31445 10.269 9.10539 8.05997 9.10539C5.8509 9.10539 4.05997 7.31445 4.05997 5.10539C4.05997 2.89632 5.8509 1.10539 8.05997 1.10539ZM15.06 14.1054C15.06 14.6576 14.6122 15.1054 14.06 15.1054H2.05997C1.50778 15.1054 1.05997 14.6576 1.05997 14.1054L1.05997 4.10539C1.05997 3.5532 1.50778 3.10539 2.05997 3.10539H3.48372C3.21434 3.71882 3.05997 4.39351 3.05997 5.10539C3.05997 7.86226 5.30309 10.1054 8.05997 10.1054C10.8168 10.1054 13.06 7.86226 13.06 5.10539C13.06 4.39351 12.9056 3.71882 12.6362 3.10539H14.06C14.6122 3.10539 15.06 3.5532 15.06 4.10539V14.1054ZM8.05997 8.10539C8.88715 8.10539 9.55997 7.43257 9.55997 6.60539C9.55997 6.17039 9.3709 5.78164 9.07434 5.50757L10.0193 3.30226C10.1281 3.04882 10.0106 2.75476 9.75653 2.64601C9.50403 2.53726 9.20903 2.65445 9.10028 2.90882L8.15465 5.11507C7.04653 5.04289 6.55997 6.0007 6.55997 6.60539C6.55997 7.43257 7.23278 8.10539 8.05997 8.10539ZM8.05997 6.10539C8.33622 6.10539 8.55997 6.32914 8.55997 6.60539C8.55997 6.88164 8.33622 7.10539 8.05997 7.10539C7.78372 7.10539 7.55997 6.88164 7.55997 6.60539C7.55997 6.32914 7.78372 6.10539 8.05997 6.10539Z" fill="#212121"/>
</svg>
